<mxfile host="Electron" modified="2023-12-01T19:19:25.649Z" agent="Mozilla/5.0 (Macintosh; Intel Mac OS X 10_15_7) AppleWebKit/537.36 (KHTML, like Gecko) draw.io/22.1.2 Chrome/114.0.5735.289 Electron/25.9.4 Safari/537.36" etag="AZ050W4nZroxenSFjRgi" version="22.1.2" type="device">
  <diagram name="Page-1" id="VACVv7NcAVpzy8vG_TZn">
    <mxGraphModel dx="2021" dy="1214" grid="1" gridSize="10" guides="1" tooltips="1" connect="1" arrows="1" fold="1" page="0" pageScale="1" pageWidth="850" pageHeight="1100" math="0" shadow="0">
      <root>
        <mxCell id="0" />
        <mxCell id="1" parent="0" />
        <mxCell id="EnkT1IvEajwqqIpuLwP6-3" value="" style="rounded=0;whiteSpace=wrap;html=1;fillColor=#12FF31;" vertex="1" parent="1">
          <mxGeometry x="30" y="20" width="810" height="380" as="geometry" />
        </mxCell>
        <mxCell id="EnkT1IvEajwqqIpuLwP6-4" value="Client Server" style="text;html=1;align=center;verticalAlign=middle;resizable=0;points=[];autosize=1;strokeColor=none;fillColor=none;" vertex="1" parent="1">
          <mxGeometry x="30" y="18" width="90" height="30" as="geometry" />
        </mxCell>
        <mxCell id="EnkT1IvEajwqqIpuLwP6-5" value="" style="rounded=0;whiteSpace=wrap;html=1;fillColor=#3333FF;" vertex="1" parent="1">
          <mxGeometry x="880" y="20" width="510" height="380" as="geometry" />
        </mxCell>
        <mxCell id="EnkT1IvEajwqqIpuLwP6-6" value="Spark Server" style="text;html=1;align=center;verticalAlign=middle;resizable=0;points=[];autosize=1;fontColor=#FFFFFF;" vertex="1" parent="1">
          <mxGeometry x="880" y="20" width="90" height="30" as="geometry" />
        </mxCell>
        <mxCell id="EnkT1IvEajwqqIpuLwP6-7" value="" style="whiteSpace=wrap;html=1;fillColor=#FF1900;" vertex="1" parent="1">
          <mxGeometry x="40" y="70" width="490" height="320" as="geometry" />
        </mxCell>
        <mxCell id="EnkT1IvEajwqqIpuLwP6-9" value="" style="whiteSpace=wrap;html=1;fillColor=#66FFFF;" vertex="1" parent="1">
          <mxGeometry x="570" y="70" width="260" height="320" as="geometry" />
        </mxCell>
        <mxCell id="EnkT1IvEajwqqIpuLwP6-10" value="" style="whiteSpace=wrap;html=1;fillColor=#FF9933;" vertex="1" parent="1">
          <mxGeometry x="580" y="130" width="240" height="110" as="geometry" />
        </mxCell>
        <mxCell id="EnkT1IvEajwqqIpuLwP6-11" value="" style="whiteSpace=wrap;html=1;fillColor=#CDA2BE;" vertex="1" parent="1">
          <mxGeometry x="580" y="270" width="240" height="110" as="geometry" />
        </mxCell>
        <mxCell id="EnkT1IvEajwqqIpuLwP6-12" value="" style="whiteSpace=wrap;html=1;" vertex="1" parent="1">
          <mxGeometry x="55" y="120" width="465" height="110" as="geometry" />
        </mxCell>
        <mxCell id="EnkT1IvEajwqqIpuLwP6-13" value="" style="whiteSpace=wrap;html=1;" vertex="1" parent="1">
          <mxGeometry x="55" y="260" width="465" height="110" as="geometry" />
        </mxCell>
        <mxCell id="EnkT1IvEajwqqIpuLwP6-14" value="" style="whiteSpace=wrap;html=1;fillColor=#FFFF00;" vertex="1" parent="1">
          <mxGeometry x="120" y="130" width="190" height="90" as="geometry" />
        </mxCell>
        <mxCell id="EnkT1IvEajwqqIpuLwP6-18" value="Application" style="text;html=1;align=center;verticalAlign=middle;resizable=0;points=[];autosize=1;strokeColor=none;fillColor=none;" vertex="1" parent="1">
          <mxGeometry x="65" y="80" width="80" height="30" as="geometry" />
        </mxCell>
        <mxCell id="EnkT1IvEajwqqIpuLwP6-19" value="Job" style="text;html=1;align=center;verticalAlign=middle;resizable=0;points=[];autosize=1;strokeColor=none;fillColor=none;" vertex="1" parent="1">
          <mxGeometry x="70" y="160" width="40" height="30" as="geometry" />
        </mxCell>
        <mxCell id="EnkT1IvEajwqqIpuLwP6-21" value="" style="whiteSpace=wrap;html=1;fillColor=#FFFF00;" vertex="1" parent="1">
          <mxGeometry x="320" y="130" width="190" height="90" as="geometry" />
        </mxCell>
        <mxCell id="EnkT1IvEajwqqIpuLwP6-22" value="Stage" style="text;html=1;align=center;verticalAlign=middle;resizable=0;points=[];autosize=1;strokeColor=none;fillColor=none;" vertex="1" parent="1">
          <mxGeometry x="190" y="130" width="50" height="30" as="geometry" />
        </mxCell>
        <mxCell id="EnkT1IvEajwqqIpuLwP6-23" value="" style="whiteSpace=wrap;html=1;fillColor=#FF00FF;" vertex="1" parent="1">
          <mxGeometry x="130" y="160" width="80" height="50" as="geometry" />
        </mxCell>
        <mxCell id="EnkT1IvEajwqqIpuLwP6-25" value="" style="whiteSpace=wrap;html=1;fillColor=#FF00FF;" vertex="1" parent="1">
          <mxGeometry x="220" y="160" width="80" height="50" as="geometry" />
        </mxCell>
        <mxCell id="EnkT1IvEajwqqIpuLwP6-26" value="" style="whiteSpace=wrap;html=1;fillColor=#FF00FF;" vertex="1" parent="1">
          <mxGeometry x="420" y="160" width="80" height="50" as="geometry" />
        </mxCell>
        <mxCell id="EnkT1IvEajwqqIpuLwP6-27" value="" style="whiteSpace=wrap;html=1;fillColor=#FF00FF;" vertex="1" parent="1">
          <mxGeometry x="330" y="160" width="80" height="50" as="geometry" />
        </mxCell>
        <mxCell id="EnkT1IvEajwqqIpuLwP6-34" value="" style="whiteSpace=wrap;html=1;fillColor=#FFFF00;" vertex="1" parent="1">
          <mxGeometry x="120" y="270" width="190" height="90" as="geometry" />
        </mxCell>
        <mxCell id="EnkT1IvEajwqqIpuLwP6-35" value="" style="whiteSpace=wrap;html=1;fillColor=#FFFF00;" vertex="1" parent="1">
          <mxGeometry x="320" y="270" width="190" height="90" as="geometry" />
        </mxCell>
        <mxCell id="EnkT1IvEajwqqIpuLwP6-36" value="" style="whiteSpace=wrap;html=1;fillColor=#FF00FF;" vertex="1" parent="1">
          <mxGeometry x="130" y="300" width="80" height="50" as="geometry" />
        </mxCell>
        <mxCell id="EnkT1IvEajwqqIpuLwP6-37" value="" style="whiteSpace=wrap;html=1;fillColor=#FF00FF;" vertex="1" parent="1">
          <mxGeometry x="220" y="300" width="80" height="50" as="geometry" />
        </mxCell>
        <mxCell id="EnkT1IvEajwqqIpuLwP6-38" value="" style="whiteSpace=wrap;html=1;fillColor=#FF00FF;" vertex="1" parent="1">
          <mxGeometry x="330" y="300" width="80" height="50" as="geometry" />
        </mxCell>
        <mxCell id="EnkT1IvEajwqqIpuLwP6-39" value="" style="whiteSpace=wrap;html=1;fillColor=#FF00FF;" vertex="1" parent="1">
          <mxGeometry x="420" y="300" width="80" height="50" as="geometry" />
        </mxCell>
        <mxCell id="EnkT1IvEajwqqIpuLwP6-40" value="Task" style="text;html=1;align=center;verticalAlign=middle;resizable=0;points=[];autosize=1;strokeColor=none;fillColor=none;" vertex="1" parent="1">
          <mxGeometry x="145" y="170" width="50" height="30" as="geometry" />
        </mxCell>
        <mxCell id="EnkT1IvEajwqqIpuLwP6-41" value="Driver" style="text;html=1;align=center;verticalAlign=middle;resizable=0;points=[];autosize=1;strokeColor=none;fillColor=none;" vertex="1" parent="1">
          <mxGeometry x="580" y="80" width="60" height="30" as="geometry" />
        </mxCell>
        <mxCell id="EnkT1IvEajwqqIpuLwP6-42" value="DAGScheduler" style="text;html=1;align=center;verticalAlign=middle;resizable=0;points=[];autosize=1;strokeColor=none;fillColor=none;" vertex="1" parent="1">
          <mxGeometry x="590" y="170" width="100" height="30" as="geometry" />
        </mxCell>
        <mxCell id="EnkT1IvEajwqqIpuLwP6-43" value="TaskScheduler: Similar to AM of YARN&lt;br&gt;(ApplicationMaster)" style="text;html=1;align=center;verticalAlign=middle;resizable=0;points=[];autosize=1;strokeColor=none;fillColor=none;" vertex="1" parent="1">
          <mxGeometry x="580" y="305" width="230" height="40" as="geometry" />
        </mxCell>
        <mxCell id="EnkT1IvEajwqqIpuLwP6-45" value="" style="shape=flexArrow;endArrow=classic;html=1;rounded=0;fillColor=#000000;" edge="1" parent="1">
          <mxGeometry width="50" height="50" relative="1" as="geometry">
            <mxPoint x="530" y="240" as="sourcePoint" />
            <mxPoint x="570" y="240" as="targetPoint" />
          </mxGeometry>
        </mxCell>
        <mxCell id="EnkT1IvEajwqqIpuLwP6-47" value="" style="shape=flexArrow;endArrow=classic;html=1;rounded=0;fillColor=#000000;" edge="1" parent="1">
          <mxGeometry width="50" height="50" relative="1" as="geometry">
            <mxPoint x="840" y="240" as="sourcePoint" />
            <mxPoint x="880" y="240" as="targetPoint" />
          </mxGeometry>
        </mxCell>
        <mxCell id="EnkT1IvEajwqqIpuLwP6-48" value="Master: similar to RM of YARN&lt;br&gt;(ResourceManager)" style="rounded=0;whiteSpace=wrap;html=1;fillColor=#00FF00;" vertex="1" parent="1">
          <mxGeometry x="1030" y="80" width="205" height="70" as="geometry" />
        </mxCell>
        <mxCell id="EnkT1IvEajwqqIpuLwP6-49" value="" style="whiteSpace=wrap;html=1;fillColor=#FF0000;" vertex="1" parent="1">
          <mxGeometry x="900" y="170" width="230" height="210" as="geometry" />
        </mxCell>
        <mxCell id="EnkT1IvEajwqqIpuLwP6-50" value="" style="whiteSpace=wrap;html=1;fillColor=#FF0000;" vertex="1" parent="1">
          <mxGeometry x="1150" y="170" width="230" height="210" as="geometry" />
        </mxCell>
        <mxCell id="EnkT1IvEajwqqIpuLwP6-51" value="worker: similar to NM of YARN&lt;br&gt;(NodeManager)" style="text;html=1;align=center;verticalAlign=middle;resizable=0;points=[];autosize=1;strokeColor=none;fillColor=none;" vertex="1" parent="1">
          <mxGeometry x="910" y="170" width="190" height="40" as="geometry" />
        </mxCell>
        <mxCell id="EnkT1IvEajwqqIpuLwP6-52" value="Executor: similar to container of YARN" style="whiteSpace=wrap;html=1;" vertex="1" parent="1">
          <mxGeometry x="910" y="210" width="210" height="160" as="geometry" />
        </mxCell>
        <mxCell id="EnkT1IvEajwqqIpuLwP6-53" value="" style="whiteSpace=wrap;html=1;" vertex="1" parent="1">
          <mxGeometry x="1160" y="210" width="210" height="160" as="geometry" />
        </mxCell>
      </root>
    </mxGraphModel>
  </diagram>
</mxfile>
